<?xml version="1.0" encoding="UTF-8"?>
<svg id="Capa_1" xmlns="http://www.w3.org/2000/svg" viewBox="0 0 240 240">
  <defs>
    <style>
      .cls-1 {
        fill: #964098;
      }

      .cls-2 {
        fill: #90bb3e;
      }

      .cls-3 {
        fill: #2e3065;
      }
    </style>
  </defs>
  <path class="cls-3" d="M34.56,130.02h0s-8.59-17.87-8.59-17.87h-.02c-.2,1.06-1.32,3.48-1.55,3.97l-6.35,13.91c-.48.85-1.22,1.4-2.02,1.53h4.91c-.35-.08-.66-.28-.85-.56-.17-.26-.31-.7-.03-1.33l1.13-2.63h6.02l1.1,2.63c.26.65.1,1.09-.07,1.34-.19.27-.48.47-.82.54h9.18c-.8-.13-1.55-.69-2.04-1.55ZM21.65,125.99l2.61-5.99,2.5,5.99h-5.11Z"/>
  <path class="cls-3" d="M49.57,125.3l-.03,3.15c0,1.71-1.6,2.6-3.17,2.6h0c-1.14,0-2.08-.37-2.8-1.09-1.16-1.16-1.75-3.21-1.75-6.09,0-5.01,1.83-7.54,5.43-7.54,2.67,0,4.47,1.38,5.33,4.1l.2-3.95c-1.41-.56-4.3-.99-6.67-.99-5.66,0-9.03,3.05-9.03,8.16s3.38,8.25,8.81,8.25c3.61,0,6.93-1.45,8.08-2.86v-3.74c-.01-.34.09-.64.29-.84.12-.13.28-.22.47-.28h-5.93c.19.06.36.16.49.29.21.21.31.5.31.84Z"/>
  <path class="cls-3" d="M72.11,129.84c-.7-.95-1.49-2.31-1.82-2.88-.07-.11-.11-.19-.13-.23-.32-.53-1.21-1.8-2.71-2.24l-.66-.19.68-.1c3.19-.48,3.54-3.1,3.54-4.2,0-3.46-3.23-4.19-5.94-4.19h-8.18c.64.21,1.12.81,1.13,1.52v12.74c-.02.72-.49,1.31-1.13,1.51h6.69c-.65-.2-1.12-.8-1.14-1.52v-13.36h1.17c1.19,0,2.64.55,2.77,3.17.02.36,0,.6-.03.81l-.02.15c-.24,1.91-1.17,2.97-2.61,2.97h-.13c.39.18.81.53,1.11,1.57.09.29.16.6.23.94.18.82.38,1.75.95,2.72,1.38,2.35,3.51,2.54,6.16,2.54h2.16c-.75-.16-1.28-.63-2.08-1.73Z"/>
  <path class="cls-3" d="M83.38,115.48c-5.88,0-9.39,3.07-9.39,8.2s3.51,8.2,9.39,8.2,9.39-3.07,9.39-8.2-3.51-8.2-9.39-8.2ZM83.38,131.05c-2.89,0-4.62-2.75-4.62-7.36s1.73-7.36,4.62-7.36,4.62,2.75,4.62,7.36-1.73,7.36-4.62,7.36Z"/>
  <path class="cls-1" d="M105.66,130.65h-3.66v-7.95h3.31c1.31.04,2.36.72,2.88,1.76v-4.28c-.52,1.05-1.59,1.73-2.91,1.76h-3.28v-8.21h4.25c1.66.06,2.83.8,3.37,2.06v-3.21c-.72.19-1.95.37-2.94.38h-10.59c.55.36.92.97.93,1.67v15.11c-.01.7-.38,1.32-.93,1.68h14.2l.71-4.31c-1.1,2.22-3.05,3.54-5.34,3.54Z"/>
  <path class="cls-1" d="M127.67,130.32l-4.84-7.39,3.94-5.88c.33-.47.74-.84,1.19-1.1h-3.12c.08.08.16.18.22.29.22.39.22.84,0,1.22l-2.87,4.48-2.92-4.47c-.23-.39-.24-.85-.02-1.24.06-.1.12-.19.2-.27h-6.4c.52.29.94.71,1.2,1.1l4.49,6.9-4.69,6.41c-.29.37-.68.77-1.17,1.05h3.14c-.1-.1-.18-.21-.25-.33-.21-.39-.19-.83.06-1.19l3.53-4.99,3.26,5c.24.39.24.85.02,1.24-.06.1-.12.19-.2.27h6.43c-.52-.29-.94-.71-1.2-1.09Z"/>
  <path class="cls-1" d="M130.55,115.62v2.42c.51-.98,1.5-1.54,2.87-1.57h2.57v13.61c-.02.55-.28,1.02-.68,1.33h5.46c-.4-.31-.66-.79-.67-1.34v-13.6h2.56c1.37.03,2.37.59,2.87,1.57v-2.42c-.61.15-1.59.3-2.39.31h-10.18c-.81-.01-1.79-.16-2.4-.31Z"/>
  <path class="cls-1" d="M152.9,130.06v-12.75c.02-.56.28-1.04.68-1.36h-5.45c.4.31.66.8.67,1.35v12.74c-.01.56-.28,1.05-.69,1.37h5.47c-.41-.32-.68-.81-.69-1.36Z"/>
  <path class="cls-1" d="M162.49,130.86v-6.8h2.84c1.05.03,1.91.55,2.38,1.34v-3.22c-.47.8-1.34,1.32-2.4,1.34h-2.81v-7.02h3.63c1.33.05,2.3.61,2.8,1.57v-2.43c-.62.16-1.62.3-2.43.31h-8.78c.41.32.67.81.68,1.36v12.74c-.01.56-.28,1.05-.69,1.37h11.78l.55-3.3c-.96,1.73-2.55,2.75-4.4,2.75h-3.14Z"/>
  <path class="cls-1" d="M184.46,117.27v8.49l-11.08-9.86c.08.51.17,1.28.17,2.28v11.93c-.01.53-.26,1.01-.65,1.32h5.41c-.39-.31-.64-.78-.65-1.31v-8.52l11.08,9.85c-.08-.51-.17-1.29-.17-2.32v-11.86c.02-.53.26-.99.64-1.3h-5.4c.39.31.64.78.65,1.31Z"/>
  <path class="cls-1" d="M200.09,115.96h-7.27c.39.3.64.75.64,1.24v12.86c-.01.55-.28,1.05-.69,1.37h7.31c5.63,0,8.86-2.82,8.86-7.72s-3.23-7.74-8.86-7.74ZM199.63,130.87h-2.06v-14.37h2.06c3.05,0,4.88,2.69,4.88,7.2s-1.82,7.17-4.88,7.17Z"/>
  <path class="cls-1" d="M219.57,130.86h-3.14v-6.8h2.84c1.05.03,1.91.55,2.38,1.34v-3.22c-.47.8-1.34,1.32-2.4,1.34h-2.81v-7.02h3.63c1.33.05,2.3.61,2.8,1.57v-2.43c-.62.16-1.62.3-2.43.31h-8.78c.41.32.67.81.68,1.36v12.74c-.01.56-.28,1.05-.69,1.37h11.78l.55-3.3c-.96,1.73-2.55,2.75-4.4,2.75Z"/>
  <path class="cls-2" d="M94.32,112.35h.19c0-.83-.21-1.68-.65-2.59,0,0-.86,2.19-2.22,2.38-.47.07-1,.25-1.51.61-.18-.59-.51-1.16-1.04-1.67-2.91-2.81-5.86-3.75-9.48-2.3,0,0,3.02,1.4,3.2,3.31.06.63.27,1.35.69,2.07,1.2-.03,2.49.18,3.76.66.06.02.11.04.17.07.55-3.69-4.47-5.3-4.47-5.3-1.54-.64-1.52-.71.03-.09,4.74,1.9,6.05,4.66,6.39,6.39.2.13.39.27.57.41.08-.24.15-.5.22-.78,2.43-.05,3.27-3.36,3.27-3.36.38-1.11.43-1.1.06.02-.85,2.56-2.14,3.78-3.26,4.36.34.28.65.58.92.9.53-.13,1.06-.4,1.49-.9.95-1.09,1.55-2.18,1.76-3.31h-.1v-.88Z"/>
</svg>